<svg width="60" height="60" viewBox="0 0 60 60" fill="none" xmlns="http://www.w3.org/2000/svg">
<path d="M30 60C46.5685 60 60 46.5685 60 30C60 13.4315 46.5685 0 30 0C13.4315 0 0 13.4315 0 30C0 46.5685 13.4315 60 30 60Z" fill="url(#paint0_linear_48_12678)"/>
<path d="M51.4794 30.3661H46.1908C46.1908 19.5883 37.4232 10.8517 26.6069 10.8517C15.9247 10.8517 7.23994 19.3745 7.02738 29.9676C6.80748 40.9176 17.1171 50.4262 28.1075 50.4262H29.4899C39.1792 50.4262 52.1659 42.8682 54.1949 33.6592C54.5696 31.9617 53.224 30.3661 51.4794 30.3661ZM18.7478 30.8463C18.7478 32.2875 17.5648 33.4663 16.1184 33.4663C14.672 33.4663 13.489 32.287 13.489 30.8463V26.6076C13.489 25.1664 14.672 23.9876 16.1184 23.9876C17.5648 23.9876 18.7478 25.1664 18.7478 26.6076V30.8463ZM27.878 30.8463C27.878 32.2875 26.6952 33.4663 25.2488 33.4663C23.8023 33.4663 22.6194 32.287 22.6194 30.8463V26.6076C22.6194 25.1664 23.8028 23.9876 25.2488 23.9876C26.6952 23.9876 27.878 25.1664 27.878 26.6076V30.8463Z" fill="url(#paint1_linear_48_12678)"/>
<defs>
<linearGradient id="paint0_linear_48_12678" x1="30" y1="0" x2="30" y2="60" gradientUnits="userSpaceOnUse">
<stop stop-color="#534BB1"/>
<stop offset="1" stop-color="#551BF9"/>
</linearGradient>
<linearGradient id="paint1_linear_48_12678" x1="30.6409" y1="10.8517" x2="30.6409" y2="50.4262" gradientUnits="userSpaceOnUse">
<stop stop-color="white"/>
<stop offset="1" stop-color="white" stop-opacity="0.82"/>
</linearGradient>
</defs>
</svg>
