<svg width="82" height="30" viewBox="0 0 82 30" fill="none" xmlns="http://www.w3.org/2000/svg">
<path d="M21.686 20.2196C21.7123 20.2986 21.7123 20.3841 21.686 20.4631C21.6707 20.5419 21.6332 20.6147 21.5778 20.6728L18.0003 24.4264C17.9214 24.5074 17.8271 24.5718 17.723 24.6157C17.6186 24.6615 17.5056 24.6846 17.3916 24.6834H0.423643C0.345062 24.684 0.267824 24.663 0.200469 24.6225C0.133159 24.5767 0.0794283 24.5136 0.0449242 24.4399C0.0210946 24.3651 0.0210946 24.2847 0.0449242 24.2099C0.0589482 24.1321 0.0940324 24.0596 0.146367 24.0003L3.73067 20.2467C3.80951 20.1656 3.90379 20.1013 4.00795 20.0573C4.11218 20.0109 4.22526 19.9879 4.33933 19.9897H21.2802C21.362 19.9881 21.4423 20.0117 21.5102 20.0573C21.5863 20.0887 21.6486 20.1463 21.686 20.2196ZM18.007 13.0912C17.9264 13.0122 17.8326 12.9481 17.7297 12.9018C17.6243 12.8592 17.512 12.8363 17.3984 12.8342H0.423643C0.344079 12.8353 0.266433 12.8587 0.199499 12.9018C0.132565 12.9448 0.0790179 13.0057 0.0449242 13.0776C0.0215327 13.1525 0.0215327 13.2327 0.0449242 13.3076C0.0563137 13.3863 0.0917453 13.4595 0.146367 13.5172L3.73067 17.2776C3.81126 17.3565 3.90512 17.4206 4.00795 17.467C4.11318 17.5101 4.2256 17.5331 4.33933 17.5346H21.2802C21.362 17.5362 21.4423 17.5126 21.5102 17.467C21.5784 17.4271 21.631 17.3651 21.659 17.2911C21.6936 17.2192 21.7051 17.1382 21.6918 17.0595C21.6784 16.9807 21.641 16.9081 21.5846 16.8515L18.007 13.0912ZM0.200469 10.3182C0.267824 10.3587 0.345062 10.3798 0.423643 10.3791H17.3984C17.5124 10.3803 17.6253 10.3572 17.7297 10.3115C17.8339 10.2675 17.9282 10.2031 18.007 10.1221L21.5846 6.36849C21.6399 6.3104 21.6775 6.23763 21.6928 6.15883C21.7162 6.08397 21.7162 6.00375 21.6928 5.92888C21.6648 5.85495 21.6123 5.79287 21.544 5.75304C21.4761 5.70746 21.3958 5.68385 21.314 5.6854H4.31227C4.19821 5.68358 4.08512 5.70666 3.9809 5.75304C3.87674 5.79698 3.78245 5.86138 3.70362 5.94241L0.126079 9.70953C0.0693507 9.76666 0.0315718 9.83986 0.0178722 9.9192C-0.00595741 9.99399 -0.00595741 10.0743 0.0178722 10.1491C0.0617659 10.2214 0.125017 10.28 0.200469 10.3182V10.3182Z" fill="white"/>
</svg>
